<?xml version="1.0" encoding="UTF-8" standalone="no"?>
<!-- Created with Inkscape (http://www.inkscape.org/) -->

<svg
   xmlns:dc="http://purl.org/dc/elements/1.1/"
   xmlns:cc="http://creativecommons.org/ns#"
   xmlns:rdf="http://www.w3.org/1999/02/22-rdf-syntax-ns#"
   xmlns:svg="http://www.w3.org/2000/svg"
   xmlns="http://www.w3.org/2000/svg"
   xmlns:sodipodi="http://sodipodi.sourceforge.net/DTD/sodipodi-0.dtd"
   xmlns:inkscape="http://www.inkscape.org/namespaces/inkscape"
   width="210mm"
   height="297mm"
   viewBox="0 0 210 297"
   version="1.1"
   id="svg8"
   sodipodi:docname="componentes.svg"
   inkscape:version="0.92.4 (5da689c313, 2019-01-14)">
  <defs
     id="defs2" />
  <sodipodi:namedview
     id="base"
     pagecolor="#ffffff"
     bordercolor="#666666"
     borderopacity="1.0"
     inkscape:pageopacity="0.0"
     inkscape:pageshadow="2"
     inkscape:zoom="0.7"
     inkscape:cx="-4891.2066"
     inkscape:cy="671.78334"
     inkscape:document-units="mm"
     inkscape:current-layer="layer1"
     showgrid="false"
     inkscape:window-width="1280"
     inkscape:window-height="706"
     inkscape:window-x="0"
     inkscape:window-y="1"
     inkscape:window-maximized="1" />
  <metadata
     id="metadata5">
    <rdf:RDF>
      <cc:Work
         rdf:about="">
        <dc:format>image/svg+xml</dc:format>
        <dc:type
           rdf:resource="http://purl.org/dc/dcmitype/StillImage" />
      </cc:Work>
    </rdf:RDF>
  </metadata>
  <g
     inkscape:label="Camada 1"
     inkscape:groupmode="layer"
     id="layer1">
    <path
       sodipodi:type="star"
       style="fill:none;stroke:#000000;stroke-width:0.79374999;stroke-miterlimit:4;stroke-dasharray:none;stroke-opacity:1"
       id="path4520"
       sodipodi:sides="7"
       sodipodi:cx="-1346.3511"
       sodipodi:cy="114.81548"
       sodipodi:r1="61.220474"
       sodipodi:r2="49.528404"
       sodipodi:arg1="0.88159159"
       sodipodi:arg2="1.3303905"
       inkscape:flatsided="true"
       inkscape:rounded="0"
       inkscape:randomized="0"
       d="m -1307.4195,162.06251 -51.5974,12.64892 -42.0597,-32.45395 -0.8503,-53.118328 40.9994,-33.78353 51.9758,10.990958 23.8133,47.48903 z"
       inkscape:transform-center-x="-7.8516503"
       inkscape:transform-center-y="-5.4211724"
       transform="matrix(-0.56313388,1.1163598,-1.1273352,-0.55736268,-1949.4479,1701.7065)" />
    <path
       sodipodi:type="star"
       style="fill:none;stroke:#000000;stroke-width:0.79374999;stroke-miterlimit:4;stroke-dasharray:none;stroke-opacity:1"
       id="path4520-7"
       sodipodi:sides="7"
       sodipodi:cx="-1346.3511"
       sodipodi:cy="114.81548"
       sodipodi:r1="61.220474"
       sodipodi:r2="49.528404"
       sodipodi:arg1="0.88159159"
       sodipodi:arg2="1.3303905"
       inkscape:flatsided="true"
       inkscape:rounded="0"
       inkscape:randomized="0"
       d="m -1307.4195,162.06251 -51.5974,12.64892 -42.0597,-32.45395 -0.8503,-53.118328 40.9994,-33.78353 51.9758,10.990958 23.8133,47.48903 z"
       inkscape:transform-center-x="-5.7252514"
       inkscape:transform-center-y="-3.687752"
       transform="matrix(-0.41062476,0.75937941,-0.8220279,-0.3791338,-1779.1639,1199.4136)" />
    <path
       style="fill:none;fill-rule:evenodd;stroke:#000000;stroke-width:0.26458332px;stroke-linecap:butt;stroke-linejoin:miter;stroke-opacity:1"
       d="m -1364.7356,101.16517 -16.3622,-13.988093"
       id="path4541"
       inkscape:connector-curvature="0" />
    <path
       style="fill:none;fill-rule:evenodd;stroke:#000000;stroke-width:0.26458332px;stroke-linecap:butt;stroke-linejoin:miter;stroke-opacity:1"
       d="m -1320.826,58.311896 0.039,23.218362"
       id="path4543"
       inkscape:connector-curvature="0" />
    <path
       style="fill:none;fill-rule:evenodd;stroke:#000000;stroke-width:0.26458332px;stroke-linecap:butt;stroke-linejoin:miter;stroke-opacity:1"
       d="m -1260.4651,86.968829 -16.3078,14.054681"
       id="path4545"
       inkscape:connector-curvature="0" />
    <path
       style="fill:none;fill-rule:evenodd;stroke:#000000;stroke-width:0.26458332px;stroke-linecap:butt;stroke-linejoin:miter;stroke-opacity:1"
       d="m -1245.4679,151.56862 -20.3693,-6.60251"
       id="path4547"
       inkscape:connector-curvature="0" />
    <path
       style="fill:none;fill-rule:evenodd;stroke:#000000;stroke-width:0.26458332px;stroke-linecap:butt;stroke-linejoin:miter;stroke-opacity:1"
       d="m -1296.2146,180.26838 9.0869,23.19793"
       id="path4549"
       inkscape:connector-curvature="0" />
    <path
       style="fill:none;fill-rule:evenodd;stroke:#000000;stroke-width:0.26458332px;stroke-linecap:butt;stroke-linejoin:miter;stroke-opacity:1"
       d="m -1345.0303,180.347 -9.0435,23.23488"
       id="path4551"
       inkscape:connector-curvature="0" />
    <path
       style="fill:#0000ff;fill-rule:evenodd;stroke:#000000;stroke-width:0.26458332000000001px;stroke-linecap:butt;stroke-linejoin:miter;stroke-opacity:1"
       d="m -1375.5249,145.14276 -20.3695,6.68554"
       id="path4553"
       inkscape:connector-curvature="0" />
    <path
       style="fill:#aaeeff;stroke:#000000;stroke-width:4.28571415;stroke-miterlimit:4;stroke-dasharray:none;stroke-opacity:1"
       d="m -4908.4923,343.03938 -81.4285,-36.18485 -0.3787,-41.49514 -0.3786,-41.49513 21.0929,10.03549 c 11.6011,5.51953 61.2715,29.06645 110.3786,52.3265 49.1072,23.26005 89.7829,42.70891 90.3906,43.21969 1.1542,0.97016 -55.0434,50.08927 -57.0813,49.8915 -0.6415,-0.0623 -37.8093,-16.39639 -82.595,-36.29806 z"
       id="path4559"
       inkscape:connector-curvature="0"
       transform="scale(0.26458333)" />
    <path
       style="fill:#aaeeff;stroke:#000000;stroke-width:4.28571415;stroke-miterlimit:4;stroke-dasharray:none;stroke-opacity:1"
       d="m -4747.6311,558.65322 c -18.3836,-6.01971 -33.9882,-11.9029 -34.677,-13.07376 -0.6888,-1.17085 -9.9407,-37.48597 -20.5598,-80.70025 -10.619,-43.21429 -19.6089,-79.5764 -19.9775,-80.8047 -0.4505,-1.50133 4.8351,-6.93856 16.1272,-16.58984 9.2386,-7.89612 22.1239,-19.02888 28.6341,-24.73948 6.5103,-5.71059 12.0349,-10.13801 12.277,-9.83872 0.242,0.29929 12.4756,52.61559 27.1856,116.25845 14.71,63.64286 27.068,116.83929 27.4622,118.21429 0.4331,1.51061 -0.028,2.44438 -1.1653,2.35947 -1.0351,-0.0773 -16.923,-5.06576 -35.3065,-11.08546 z"
       id="path4561"
       inkscape:connector-curvature="0"
       transform="scale(0.26458333)" />
    <path
       style="fill:#aaeeff;stroke:#000000;stroke-width:4.28571415;stroke-miterlimit:4;stroke-dasharray:none;stroke-opacity:1"
       d="m -4865.4049,763.10894 c -1.8184,-2.94233 -30.9445,-78.14483 -30.9445,-79.89769 0,-2.70666 112.9474,-133.54773 114.8461,-133.04051 0.8703,0.23251 17.0648,5.56561 35.9876,11.85132 l 34.4051,11.42858 -74.9667,93.57142 c -41.2316,51.46429 -75.7629,94.43669 -76.7361,95.49423 -0.9953,1.08167 -2.129,1.34093 -2.5915,0.59265 z"
       id="path4563"
       inkscape:connector-curvature="0"
       transform="scale(0.26458333)" />
    <path
       style="fill:#aaeeff;stroke:#000000;stroke-width:4.28571415;stroke-miterlimit:4;stroke-dasharray:none;stroke-opacity:1"
       d="m -5114.0957,763.80778 c 1.4568,-4.60155 30.3846,-78.47163 30.9519,-79.03895 0.2601,-0.26008 41.5916,-0.91958 91.8479,-1.46556 l 91.3751,-0.99269 12.7578,33.42717 c 7.0168,18.38494 14.5435,37.44503 16.726,42.35574 l 3.9681,8.92857 h -124.3222 -124.3223 z"
       id="path4565"
       inkscape:connector-curvature="0"
       transform="scale(0.26458333)" />
    <path
       style="fill:#aaeeff;stroke:#000000;stroke-width:4.28571415;stroke-miterlimit:4;stroke-dasharray:none;stroke-opacity:1"
       d="m -5194.9988,669.66234 c -41.9928,-51.97642 -76.2919,-94.88713 -76.22,-95.35714 0.072,-0.47001 16.0881,-6.04311 35.5918,-12.38466 l 35.4612,-11.53009 4.5733,5.10152 c 2.5152,2.80584 28.3348,32.56827 57.3768,66.13873 l 52.8036,61.0372 -12.5188,31.56329 c -6.8854,17.3598 -14.0013,35.69663 -15.8131,40.7485 -1.8118,5.05187 -3.6564,9.18523 -4.0992,9.18523 -0.4427,0 -35.1628,-42.52616 -77.1556,-94.50258 z"
       id="path4567"
       inkscape:connector-curvature="0"
       transform="scale(0.26458333)" />
    <path
       style="fill:#aaeeff;stroke:#000000;stroke-width:4.28571415;stroke-miterlimit:4;stroke-dasharray:none;stroke-opacity:1"
       d="m -5271.8088,568.27994 c 4.0434,-20.85798 53.5958,-234.09114 54.4019,-234.10131 1.636,-0.0207 56.7718,47.28975 56.7718,48.71426 0,1.59943 -39.9365,164.59897 -40.379,164.80572 -0.1844,0.0861 -15.4425,5.15768 -33.9067,11.27005 -18.4643,6.11239 -34.466,11.4731 -35.5594,11.9127 -1.4568,0.58578 -1.8117,-0.10914 -1.3286,-2.60142 z"
       id="path4569"
       inkscape:connector-curvature="0"
       transform="scale(0.26458333)" />
    <path
       style="fill:#aaeeff;stroke:#000000;stroke-width:4.28571415;stroke-miterlimit:4;stroke-dasharray:none;stroke-opacity:1"
       d="m -5176.621,364.52206 c -9.6864,-8.44642 -22.5991,-19.47083 -28.6951,-24.49867 -6.096,-5.02785 -10.9116,-9.28617 -10.7013,-9.46295 0.6143,-0.51651 206.7676,-99.23788 215.0251,-102.96987 l 7.5,-3.38962 v 41.22803 41.22803 l -81.9145,36.6111 c -45.0529,20.1361 -82.2943,36.6111 -82.7586,36.6111 -0.4643,0 -8.7693,-6.91072 -18.4556,-15.35715 z"
       id="path4571"
       inkscape:connector-curvature="0"
       transform="scale(0.26458333)" />
    <text
       xml:space="preserve"
       style="font-style:normal;font-variant:normal;font-weight:bold;font-stretch:normal;font-size:22.57777786px;line-height:125%;font-family:Sans;-inkscape-font-specification:'Sans Bold';letter-spacing:0px;word-spacing:0px;fill:#000000;fill-opacity:1;stroke:none;stroke-width:0.26458332px;stroke-linecap:butt;stroke-linejoin:miter;stroke-opacity:1"
       x="-1346.7291"
       y="138.25002"
       id="text4575"><tspan
         sodipodi:role="line"
         id="tspan4573"
         x="-1346.7291"
         y="138.25002"
         style="font-style:normal;font-variant:normal;font-weight:bold;font-stretch:normal;font-size:22.57777786px;font-family:Sans;-inkscape-font-specification:'Sans Bold';stroke-width:0.26458332px">K8S</tspan></text>
  </g>
</svg>
